<svg width="40" height="40" viewBox="0 0 40 40" fill="none" xmlns="http://www.w3.org/2000/svg">
<path d="M12 6.66514V9.3299H37.3333V14.6049L34.375 23.9861H11.161L7.82767 0H0V2.66476H5.50567L8.839 26.6508H36.3307L40 15.0147V6.66514H12ZM13.4153 29.341C12.0013 29.3426 10.6457 29.9046 9.64588 30.9037C8.64603 31.9029 8.08361 33.2575 8.082 34.6705C8.082 36.084 8.6439 37.4395 9.6441 38.439C10.6443 39.4385 12.0008 40 13.4153 40C14.8298 40 16.1864 39.4385 17.1866 38.439C18.1868 37.4395 18.7487 36.084 18.7487 34.6705C18.7471 33.2575 18.1847 31.9028 17.1848 30.9037C16.185 29.9046 14.8293 29.3426 13.4153 29.341ZM13.4153 37.3352C12.8879 37.3352 12.3723 37.179 11.9338 36.8862C11.4953 36.5933 11.1535 36.1772 10.9517 35.6902C10.7498 35.2033 10.697 34.6675 10.7999 34.1506C10.9028 33.6337 11.1568 33.1589 11.5297 32.7862C11.9027 32.4135 12.3778 32.1598 12.8951 32.0569C13.4124 31.9541 13.9486 32.0069 14.4358 32.2086C14.9231 32.4103 15.3396 32.7518 15.6326 33.19C15.9256 33.6282 16.082 34.1434 16.082 34.6705C16.0812 35.377 15.7999 36.0543 15.3 36.5538C14.8001 37.0534 14.1223 37.3344 13.4153 37.3352ZM32.082 29.341C30.668 29.3426 29.3124 29.9046 28.3125 30.9037C27.3127 31.9029 26.7503 33.2575 26.7487 34.6705C26.7487 36.084 27.3106 37.4395 28.3108 38.439C29.311 39.4385 30.6675 40 32.082 40C33.4965 40 34.853 39.4385 35.8532 38.439C36.8534 37.4395 37.4153 36.084 37.4153 34.6705C37.4137 33.2575 36.8513 31.9028 35.8515 30.9037C34.8516 29.9046 33.496 29.3426 32.082 29.341ZM32.082 37.3352C31.5546 37.3352 31.039 37.179 30.6005 36.8862C30.1619 36.5933 29.8202 36.1772 29.6183 35.6902C29.4165 35.2033 29.3637 34.6675 29.4666 34.1506C29.5695 33.6337 29.8234 33.1589 30.1964 32.7862C30.5693 32.4135 31.0445 32.1598 31.5618 32.0569C32.079 31.9541 32.6152 32.0069 33.1025 32.2086C33.5898 32.4103 34.0062 32.7518 34.2993 33.19C34.5923 33.6282 34.7487 34.1434 34.7487 34.6705C34.7478 35.377 34.4666 36.0543 33.9667 36.5538C33.4668 37.0534 32.789 37.3344 32.082 37.3352Z" fill="white"/>
</svg>
