<svg width="85" height="85" viewBox="0 0 85 85" fill="none" xmlns="http://www.w3.org/2000/svg">
<path d="M68 68C70.2543 68 72.4163 68.8955 74.0104 70.4896C75.6045 72.0837 76.5 74.2457 76.5 76.5C76.5 78.7543 75.6045 80.9163 74.0104 82.5104C72.4163 84.1045 70.2543 85 68 85C65.7457 85 63.5837 84.1045 61.9896 82.5104C60.3955 80.9163 59.5 78.7543 59.5 76.5C59.5 71.7825 63.2825 68 68 68ZM0 0H13.8975L17.8925 8.5H80.75C81.8772 8.5 82.9582 8.94777 83.7552 9.7448C84.5522 10.5418 85 11.6228 85 12.75C85 13.4725 84.7875 14.195 84.49 14.875L69.275 42.3725C67.83 44.965 65.025 46.75 61.8375 46.75H30.175L26.35 53.6775L26.2225 54.1875C26.2225 54.4693 26.3344 54.7395 26.5337 54.9388C26.733 55.1381 27.0032 55.25 27.285 55.25H76.5V63.75H25.5C23.2457 63.75 21.0837 62.8545 19.4896 61.2604C17.8955 59.6663 17 57.5043 17 55.25C17 53.7625 17.3825 52.36 18.02 51.17L23.8 40.7575L8.5 8.5H0V0ZM25.5 68C27.7543 68 29.9163 68.8955 31.5104 70.4896C33.1045 72.0837 34 74.2457 34 76.5C34 78.7543 33.1045 80.9163 31.5104 82.5104C29.9163 84.1045 27.7543 85 25.5 85C23.2457 85 21.0837 84.1045 19.4896 82.5104C17.8955 80.9163 17 78.7543 17 76.5C17 71.7825 20.7825 68 25.5 68ZM63.75 38.25L75.565 17H21.845L31.875 38.25H63.75Z" fill="#ECECEC"/>
</svg>
