<svg width="70" height="75" viewBox="0 0 70 75" fill="none" xmlns="http://www.w3.org/2000/svg">
<path fill-rule="evenodd" clip-rule="evenodd" d="M16.8089 36.2164L20.1027 19.7689C20.7761 16.44 22.5803 13.4466 25.2091 11.2963C27.838 9.14595 31.1298 7.97116 34.5261 7.97116C37.9224 7.97116 41.2142 9.14595 43.843 11.2963C46.4719 13.4466 48.2761 16.44 48.9495 19.7689L52.2433 36.2164C53.2263 41.126 55.6382 45.6357 59.1761 49.1789L60.2067 50.2042C60.5863 50.5843 60.8574 51.059 60.9918 51.5792C61.1262 52.0993 61.1191 52.6459 60.9712 53.1623C60.8232 53.6788 60.5399 54.1463 60.1504 54.5163C59.761 54.8864 59.2797 55.1456 58.7564 55.267L54.3948 56.2764C41.3209 59.294 27.7313 59.294 14.6573 56.2764L10.3011 55.267C9.77736 55.1463 9.29547 54.8876 8.90541 54.5179C8.51535 54.1481 8.23134 53.6807 8.08282 53.1642C7.93431 52.6476 7.92671 52.1007 8.06081 51.5803C8.19492 51.0598 8.46584 50.5847 8.84547 50.2042L9.87609 49.1789C13.416 45.6372 15.8283 41.1269 16.8089 36.2164ZM8.99953 34.6545L12.288 18.207C13.322 13.071 16.102 8.45127 20.1557 5.13236C24.2095 1.81345 29.287 0 34.5261 0C39.7652 0 44.8427 1.81345 48.8965 5.13236C52.9502 8.45127 55.7302 13.071 56.7642 18.207L60.058 34.6545C60.7273 38.0227 62.3848 41.1145 64.8127 43.5423L65.8433 44.573C67.2301 45.9584 68.2205 47.69 68.7117 49.5878C69.2028 51.4856 69.1767 53.4803 68.6361 55.3645C68.0955 57.2488 67.0601 58.9539 65.6375 60.3026C64.2149 61.6513 62.4571 62.5944 60.5467 63.0339L56.1852 64.0433C52.4611 64.8933 48.6945 65.5308 44.9227 65.9452C44.4175 68.3274 43.1094 70.4638 41.2173 71.9967C39.3252 73.5297 36.9639 74.3662 34.5287 74.3662C32.0936 74.3662 29.7323 73.5297 27.8402 71.9967C25.9481 70.4638 24.64 68.3274 24.1348 65.9452C20.3463 65.5328 16.5855 64.8959 12.8723 64.038L8.50547 63.0286C6.59717 62.587 4.84171 61.6431 3.42108 60.2946C2.00046 58.9461 0.966385 57.2422 0.426065 55.3595C-0.114256 53.4767 -0.141153 51.4838 0.348162 49.5871C0.837477 47.6905 1.82519 45.9593 3.20891 44.573L4.24484 43.537C6.67266 41.1092 8.33016 38.012 8.99953 34.6492V34.6545Z" fill="#ECECEC"/>
</svg>
