<svg width="40" height="40" viewBox="0 0 40 40" fill="none" xmlns="http://www.w3.org/2000/svg">
<path fill-rule="evenodd" clip-rule="evenodd" d="M21.5385 10H13.8462V6.9231H21.5385C23.5786 6.9231 25.5352 7.73353 26.9778 9.17612C28.4204 10.6187 29.2308 12.5753 29.2308 14.6154V16.1539C29.2308 18.194 28.4204 20.1506 26.9778 21.5931C25.5352 23.0357 23.5786 23.8462 21.5385 23.8462H13.8462V20.7692H21.5385C22.7626 20.7692 23.9365 20.283 24.8021 19.4174C25.6676 18.5519 26.1539 17.3779 26.1539 16.1539V14.6154C26.1539 13.3913 25.6676 12.2174 24.8021 11.3518C23.9365 10.4863 22.7626 10 21.5385 10Z" fill="white"/>
<path fill-rule="evenodd" clip-rule="evenodd" d="M13.8461 6.9231C14.2541 6.9231 14.6454 7.08518 14.9339 7.3737C15.2225 7.66222 15.3845 8.05353 15.3845 8.46156V32.3077C15.3845 32.7157 15.2225 33.1071 14.9339 33.3956C14.6454 33.6841 14.2541 33.8462 13.8461 33.8462C13.4381 33.8462 13.0467 33.6841 12.7582 33.3956C12.4697 33.1071 12.3076 32.7157 12.3076 32.3077V8.46156C12.3076 8.05353 12.4697 7.66222 12.7582 7.3737C13.0467 7.08518 13.4381 6.9231 13.8461 6.9231Z" fill="white"/>
<path fill-rule="evenodd" clip-rule="evenodd" d="M7.69238 12.9784C7.69238 12.5704 7.85447 12.1791 8.14299 11.8905C8.43151 11.602 8.82282 11.4399 9.23084 11.4399H30.7693C31.1773 11.4399 31.5686 11.602 31.8572 11.8905C32.1457 12.1791 32.3078 12.5704 32.3078 12.9784C32.3078 13.3864 32.1457 13.7777 31.8572 14.0663C31.5686 14.3548 31.1773 14.5169 30.7693 14.5169H9.23084C8.82282 14.5169 8.43151 14.3548 8.14299 14.0663C7.85447 13.7777 7.69238 13.3864 7.69238 12.9784ZM7.69238 17.5938C7.69238 17.1858 7.85447 16.7944 8.14299 16.5059C8.43151 16.2174 8.82282 16.0553 9.23084 16.0553H30.7693C31.1773 16.0553 31.5686 16.2174 31.8572 16.5059C32.1457 16.7944 32.3078 17.1858 32.3078 17.5938C32.3078 18.0018 32.1457 18.3931 31.8572 18.6816C31.5686 18.9702 31.1773 19.1323 30.7693 19.1323H9.23084C8.82282 19.1323 8.43151 18.9702 8.14299 18.6816C7.85447 18.3931 7.69238 18.0018 7.69238 17.5938Z" fill="white"/>
<path fill-rule="evenodd" clip-rule="evenodd" d="M20 36.9231C29.3462 36.9231 36.9231 29.3462 36.9231 20C36.9231 10.6538 29.3462 3.07692 20 3.07692C10.6538 3.07692 3.07692 10.6538 3.07692 20C3.07692 29.3462 10.6538 36.9231 20 36.9231ZM20 40C31.0462 40 40 31.0462 40 20C40 8.95385 31.0462 0 20 0C8.95385 0 0 8.95385 0 20C0 31.0462 8.95385 40 20 40Z" fill="white"/>
</svg>
