<svg width="40" height="36" viewBox="0 0 40 36" fill="none" xmlns="http://www.w3.org/2000/svg">
<path d="M14.2675 18.7534C14.0369 18.5078 13.761 18.3119 13.456 18.1772C13.151 18.0424 12.823 17.9715 12.491 17.9685C12.1591 17.9655 11.8299 18.0306 11.5226 18.1599C11.2154 18.2892 10.9362 18.4801 10.7015 18.7216C10.4668 18.963 10.2811 19.2501 10.1554 19.5661C10.0297 19.8821 9.96649 20.2207 9.96937 20.5622C9.97226 20.9036 10.0412 21.241 10.1722 21.5548C10.3033 21.8685 10.4937 22.1522 10.7325 22.3894L18.2325 30.1037C18.7013 30.5858 19.3371 30.8566 20 30.8566C20.6629 30.8566 21.2987 30.5858 21.7675 30.1037L29.2675 22.3894C29.7229 21.9045 29.9749 21.2549 29.9692 20.5807C29.9635 19.9065 29.7006 19.2615 29.237 18.7848C28.7735 18.308 28.1465 18.0376 27.491 18.0317C26.8355 18.0258 26.204 18.285 25.7325 18.7534L22.5 22.0783V7.71429H35C36.3261 7.71429 37.5979 8.25612 38.5355 9.22059C39.4732 10.1851 40 11.4932 40 12.8571V30.8571C40 32.2211 39.4732 33.5292 38.5355 34.4937C37.5979 35.4582 36.3261 36 35 36H5C3.67392 36 2.40215 35.4582 1.46447 34.4937C0.526784 33.5292 0 32.2211 0 30.8571V12.8571C0 11.4932 0.526784 10.1851 1.46447 9.22059C2.40215 8.25612 3.67392 7.71429 5 7.71429H17.5V22.0783L14.2675 18.7534ZM17.5 2.57143C17.5 1.88944 17.7634 1.23539 18.2322 0.753154C18.7011 0.270917 19.337 0 20 0C20.663 0 21.2989 0.270917 21.7678 0.753154C22.2366 1.23539 22.5 1.88944 22.5 2.57143V7.71429H17.5V2.57143Z" fill="#2197BD"/>
</svg>
